<?xml version="1.0" encoding="utf-8"?>
<!-- Generator: Adobe Illustrator 27.0.1, SVG Export Plug-In . SVG Version: 6.00 Build 0)  -->
<svg version="1.1" id="Layer_1" xmlns="http://www.w3.org/2000/svg" xmlns:xlink="http://www.w3.org/1999/xlink" x="0px" y="0px"
	 viewBox="0 0 36 36" style="enable-background:new 0 0 36 36;" xml:space="preserve">
<style type="text/css">
	.st0{fill:#662113;}
	.st1{fill:#5C913B;}
	.st2{fill:#3E721D;}
</style>
<g>
	<path class="st0" d="M21.1,29.7c0,1.7-1.4,2.3-3.1,2.3c-1.7,0-3.1-0.6-3.1-2.3l0.8-7c0-1.7,0.6-1.6,2.3-1.6c1.7,0,2.3-0.2,2.3,1.6
		L21.1,29.7z"/>
	<path class="st1" d="M28.5,25.3C23,20.6,20.8,13.9,18,13.9c-2.8,0-5,6.7-10.5,11.4c-2.3,2-1.2,3.1,1.9,2.9c2.8-0.2,5.4-0.8,8.6-0.8
		s5.8,0.6,8.6,0.8C29.7,28.4,30.8,27.2,28.5,25.3z"/>
	<path class="st2" d="M26.7,23.4c-4.2-3.8-6.5-9.3-8.7-9.3c-2.2,0-4.5,5.5-8.7,9.3c-3.3,3.1,4.4,3.7,8.7,0
		C22.4,27.2,30.1,26.5,26.7,23.4z"/>
	<path class="st1" d="M26.7,20.3c-4.2-3.6-6.5-8.7-8.7-8.7c-2.2,0-4.5,5.1-8.7,8.7c-3.3,2.9,4.4,3.5,8.7,0
		C22.4,23.8,30.1,23.2,26.7,20.3z"/>
	<path class="st2" d="M24.8,17.8C21.5,15,19.7,11,18,11c-1.7,0-3.5,4-6.8,6.8c-2.6,2.2,3.4,2.7,6.8,0C21.4,20.5,27.4,20,24.8,17.8z"
		/>
	<path class="st1" d="M24.8,15.4c-3.3-2.8-5.1-6.8-6.8-6.8c-1.7,0-3.5,4-6.8,6.8c-2.6,2.2,3.4,2.7,6.8,0
		C21.4,18.2,27.4,17.7,24.8,15.4z"/>
	<path class="st2" d="M23.5,13.4c-2.6-2.3-4.1-5.5-5.5-5.5c-1.4,0-2.9,3.2-5.5,5.5c-2.1,1.8,2.7,2.2,5.5,0
		C20.7,15.6,25.6,15.2,23.5,13.4z"/>
	<path class="st1" d="M23.5,11.6c-2.6-2.3-4.1-5.5-5.5-5.5c-1.4,0-2.9,3.2-5.5,5.5c-2.1,1.8,2.7,2.2,5.5,0
		C20.7,13.8,25.6,13.4,23.5,11.6z"/>
	<path class="st2" d="M22.2,9c-2-1.7-3.1-4.2-4.2-4.2c-1,0-2.2,2.5-4.2,4.2c-1.6,1.4,2.1,1.7,4.2,0C20.1,10.7,23.8,10.4,22.2,9z"/>
	<path class="st1" d="M22.2,8.1c-2-1.7-3.1-4.2-4.2-4.2c-1,0-2.2,2.5-4.2,4.2c-1.6,1.4,2.1,1.7,4.2,0C20.1,9.8,23.8,9.5,22.2,8.1z"
		/>
</g>
</svg>
